<?xml version="1.0" encoding="UTF-8" standalone="no"?><!-- Generator: Gravit.io --><svg xmlns="http://www.w3.org/2000/svg" xmlns:xlink="http://www.w3.org/1999/xlink" style="isolation:isolate" viewBox="604 291.301 111 100.398" width="111pt" height="100.398pt"><defs><clipPath id="_clipPath_tpF6WbpUoRATEbUwOoMyEty2NaToS6UT"><rect x="604" y="291.301" width="111" height="100.398"/></clipPath></defs><g clip-path="url(#_clipPath_tpF6WbpUoRATEbUwOoMyEty2NaToS6UT)"><ellipse vector-effect="non-scaling-stroke" cx="659.4999999999999" cy="341.49999999999994" rx="53.5" ry="26.500000000000057" fill="none" stroke-width="4" stroke="rgb(135,195,193)" stroke-linejoin="miter" stroke-linecap="square" stroke-miterlimit="3"/><circle vector-effect="non-scaling-stroke" cx="659.4999999999999" cy="341.49999999999983" r="12.250000000000114" fill="rgb(135,195,193)"/><path d=" M 632.75 387.832 C 620.084 380.519 621.787 353.822 636.55 328.25 C 651.314 302.678 673.584 287.855 686.25 295.168 C 698.916 302.481 697.213 329.178 682.45 354.75 C 667.686 380.322 645.416 395.145 632.75 387.832 Z " fill="none" vector-effect="non-scaling-stroke" stroke-width="4" stroke="rgb(135,195,193)" stroke-linejoin="miter" stroke-linecap="square" stroke-miterlimit="3"/><path d=" M 693.889 382.483 C 682.685 391.885 658.18 381.153 639.2 358.534 C 620.22 335.915 613.907 309.918 625.111 300.517 C 636.315 291.115 660.82 301.847 679.8 324.466 C 698.78 347.085 705.093 373.082 693.889 382.483 Z " fill="none" vector-effect="non-scaling-stroke" stroke-width="4" stroke="rgb(135,195,193)" stroke-linejoin="miter" stroke-linecap="square" stroke-miterlimit="3"/></g></svg>